<svg width="139" height="120" viewBox="0 0 139 120" fill="none" xmlns="http://www.w3.org/2000/svg">
<g clip-path="url(#clip0_30_3)">
<path d="M137.041 90.563L73.326 2.241C71.321 -0.516002 66.698 -0.516002 64.713 2.241L0.998 90.563C0.349255 91.4669 0.000219682 92.5514 0 93.664C0.00126426 94.7811 0.353421 95.8696 1.00674 96.7757C1.66006 97.6818 2.58152 98.3599 3.641 98.714L67.356 119.565H67.366C68.4356 119.914 69.5884 119.914 70.658 119.565H70.668L134.383 98.715C135.178 98.4573 135.901 98.014 136.49 97.4217C137.08 96.8294 137.521 96.1052 137.775 95.309C138.037 94.5154 138.106 93.6707 137.976 92.8452C137.845 92.0197 137.52 91.2373 137.026 90.563H137.041ZM69.022 14.412L94.56 49.815L70.678 42.002C70.493 41.942 70.298 41.952 70.114 41.908C69.934 41.8635 69.7508 41.8334 69.566 41.818C69.381 41.793 69.206 41.723 69.022 41.723C68.837 41.723 68.668 41.793 68.483 41.818C68.299 41.838 68.114 41.868 67.935 41.908C67.745 41.943 67.551 41.943 67.381 42.002L43.644 49.77L43.494 49.82L69.032 14.41H69.022V14.412ZM32.94 64.438L60.742 55.334L63.71 54.367V107.205L13.86 90.887L32.94 64.438ZM74.339 107.195V54.367L105.109 64.438L124.188 90.872L74.334 107.195H74.339Z" fill="#E520E9"/>
</g>
<defs>
<clipPath id="clip0_30_3">
<rect width="139" height="120" fill="white"/>
</clipPath>
</defs>
</svg>
